<svg width="24" height="24" viewBox="0 0 24 24" fill="none" xmlns="http://www.w3.org/2000/svg">
<g clip-path="url(#clip0_1878_46712)">
<path d="M18.5 24C19.8807 24 21 22.8807 21 21.5C21 20.1193 19.8807 19 18.5 19C17.1193 19 16 20.1193 16 21.5C16 22.8807 17.1193 24 18.5 24Z" fill="black"/>
<path d="M8.5 24C9.88071 24 11 22.8807 11 21.5C11 20.1193 9.88071 19 8.5 19C7.11929 19 6 20.1193 6 21.5C6 22.8807 7.11929 24 8.5 24Z" fill="black"/>
<path d="M20.5 18H8.959C7.296 18 5.853 16.817 5.527 15.187L3.09 3H0.5C0.224 3 0 2.776 0 2.5C0 2.224 0.224 2 0.5 2H3.5C3.738 2 3.943 2.168 3.99 2.402L6.508 14.99C6.741 16.155 7.771 17 8.959 17H20.5C20.776 17 21 17.224 21 17.5C21 17.776 20.776 18 20.5 18Z" fill="black"/>
<path d="M21.972 11.279C21.823 11.191 21.64 11.185 21.487 11.266C20.552 11.753 19.547 12 18.5 12C14.916 12 12.004 9.29 12.009 5.624C12.009 5.617 12.014 5.521 12.015 5.515C12.019 5.377 11.966 5.244 11.869 5.147C11.771 5.049 11.636 4.997 11.5 5H4.48503C4.33903 5.004 4.20203 5.073 4.11103 5.187C4.01903 5.3 3.98103 5.448 4.00903 5.592L5.50903 13.592C5.55303 13.829 5.75903 14 6.00003 14H19.734C20.992 14 22.059 13.059 22.214 11.81C22.217 11.785 22.217 11.722 22.217 11.697C22.213 11.525 22.12 11.367 21.972 11.279Z" fill="black"/>
<path d="M18.5 0C15.467 0 13 2.467 13 5.5C13 8.533 15.467 11 18.5 11C21.533 11 24 8.533 24 5.5C24 2.467 21.533 0 18.5 0ZM21.854 3.854L17.854 7.854C17.756 7.951 17.628 8 17.5 8C17.372 8 17.244 7.951 17.146 7.854L15.146 5.854C14.951 5.659 14.951 5.342 15.146 5.147C15.341 4.952 15.658 4.952 15.853 5.147L17.5 6.793L21.146 3.147C21.341 2.952 21.658 2.952 21.853 3.147C22.048 3.342 22.049 3.658 21.854 3.854Z" fill="black"/>
</g>
<defs>
<clipPath id="clip0_1878_46712">
<rect width="24" height="24" fill="white"/>
</clipPath>
</defs>
</svg>
