<svg width="24" height="24" viewBox="0 0 24 24" fill="none" xmlns="http://www.w3.org/2000/svg">
<path d="M19 23C20.3807 23 21.5 21.8807 21.5 20.5C21.5 19.1193 20.3807 18 19 18C17.6193 18 16.5 19.1193 16.5 20.5C16.5 21.8807 17.6193 23 19 23Z" fill="black"/>
<path d="M9 23C10.3807 23 11.5 21.8807 11.5 20.5C11.5 19.1193 10.3807 18 9 18C7.61929 18 6.5 19.1193 6.5 20.5C6.5 21.8807 7.61929 23 9 23Z" fill="black"/>
<path d="M21 17H9.459C7.797 17 6.353 15.817 6.027 14.187L3.59 2H1C0.724 2 0.5 1.776 0.5 1.5C0.5 1.224 0.724 1 1 1H4C4.238 1 4.443 1.168 4.49 1.402L7.008 13.99C7.241 15.155 8.272 16 9.459 16H21C21.276 16 21.5 16.224 21.5 16.5C21.5 16.776 21.276 17 21 17Z" fill="black"/>
<path d="M23.375 4.169C23.28 4.062 23.144 4 23 4H5C4.724 4 4.5 4.224 4.5 4.5C4.5 4.776 4.724 5 5 5H5.094L6.41 12.018C6.178 12.062 6 12.256 6 12.5C6 12.776 6.224 13 6.5 13H20.234C21.492 13 22.559 12.059 22.715 10.81L23.496 4.562C23.514 4.42 23.47 4.276 23.375 4.169Z" fill="black"/>
</svg>
